<?xml version="1.0" encoding="utf-8"?><!-- Uploaded to: SVG Repo, www.svgrepo.com, Generator: SVG Repo Mixer Tools -->
<svg fill="#000000" width="800px" height="800px" viewBox="0 0 24 24" id="qr-code-scan" data-name="Line Color" xmlns="http://www.w3.org/2000/svg" class="icon line-color"><path id="secondary" d="M13,11V7h4v4Zm4,6V15H15v2ZM7,13v4h4V13ZM7,7V9H9V7Z" style="fill: none; stroke: #42a5f5; stroke-linecap: round; stroke-linejoin: round; stroke-width: 2;"></path><path id="primary" d="M21,8V4a1,1,0,0,0-1-1H16" style="fill: none; stroke: #42a5f5; stroke-linecap: round; stroke-linejoin: round; stroke-width: 2;"></path><path id="primary-2" data-name="primary" d="M16,21h4a1,1,0,0,0,1-1V16" style="fill: none; stroke: #42a5f5; stroke-linecap: round; stroke-linejoin: round; stroke-width: 2;"></path><path id="primary-3" data-name="primary" d="M8,3H4A1,1,0,0,0,3,4V8" style="fill: none; stroke: #42a5f5; stroke-linecap: round; stroke-linejoin: round; stroke-width: 2;"></path><path id="primary-4" data-name="primary" d="M3,16v4a1,1,0,0,0,1,1H8" style="fill: none; stroke: #42a5f5; stroke-linecap: round; stroke-linejoin: round; stroke-width: 2;"></path></svg>